<svg width="49" height="9" viewBox="0 0 49 9" fill="none" xmlns="http://www.w3.org/2000/svg">
<path d="M0 8.6543V0.123047H3.06445C4.16211 0.123047 4.99609 0.324219 5.56641 0.726562C6.14062 1.12891 6.42773 1.71289 6.42773 2.47852C6.42773 2.91992 6.32617 3.29688 6.12305 3.60938C5.91992 3.92188 5.62109 4.15234 5.22656 4.30078C5.67188 4.41797 6.01367 4.63672 6.25195 4.95703C6.49023 5.27734 6.60938 5.66797 6.60938 6.12891C6.60938 6.96484 6.34375 7.59375 5.8125 8.01562C5.28516 8.43359 4.50195 8.64648 3.46289 8.6543H0ZM2.05664 5.02734V7.07227H3.4043C3.77539 7.07227 4.06055 6.98828 4.25977 6.82031C4.45898 6.64844 4.55859 6.4082 4.55859 6.09961C4.55859 5.38867 4.20508 5.03125 3.49805 5.02734H2.05664ZM2.05664 3.67969H3.12891C3.57812 3.67578 3.89844 3.59375 4.08984 3.43359C4.28125 3.27344 4.37695 3.03711 4.37695 2.72461C4.37695 2.36523 4.27344 2.10742 4.06641 1.95117C3.85938 1.79102 3.52539 1.71094 3.06445 1.71094H2.05664V3.67969Z" fill="white"/>
<path d="M12.3518 7.06055H9.53344L9.04125 8.6543H6.84398L9.97289 0.123047H11.9065L15.0588 8.6543H12.8498L12.3518 7.06055ZM10.0256 5.47266H11.8596L10.9397 2.51367L10.0256 5.47266Z" fill="white"/>
<path d="M19.8462 6.38672C19.8462 6.08594 19.7388 5.85156 19.5239 5.68359C19.313 5.51562 18.9399 5.3418 18.4048 5.16211C17.8696 4.98242 17.4321 4.80859 17.0923 4.64062C15.9868 4.09766 15.4341 3.35156 15.4341 2.40234C15.4341 1.92969 15.5708 1.51367 15.8442 1.1543C16.1216 0.791016 16.5122 0.509766 17.0161 0.310547C17.52 0.107422 18.0864 0.00585938 18.7153 0.00585938C19.3286 0.00585938 19.8774 0.115234 20.3618 0.333984C20.8501 0.552734 21.229 0.865234 21.4985 1.27148C21.768 1.67383 21.9028 2.13477 21.9028 2.6543H19.852C19.852 2.30664 19.7446 2.03711 19.5298 1.8457C19.3188 1.6543 19.0317 1.55859 18.6684 1.55859C18.3013 1.55859 18.0102 1.64062 17.7954 1.80469C17.5845 1.96484 17.479 2.16992 17.479 2.41992C17.479 2.63867 17.5962 2.83789 17.8305 3.01758C18.0649 3.19336 18.477 3.37695 19.0669 3.56836C19.6567 3.75586 20.1411 3.95898 20.52 4.17773C21.4419 4.70898 21.9028 5.44141 21.9028 6.375C21.9028 7.12109 21.6216 7.70703 21.0591 8.13281C20.4966 8.55859 19.7251 8.77148 18.7446 8.77148C18.0532 8.77148 17.4263 8.64844 16.8638 8.40234C16.3052 8.15234 15.8833 7.8125 15.5981 7.38281C15.3169 6.94922 15.1763 6.45117 15.1763 5.88867H17.2388C17.2388 6.3457 17.3559 6.68359 17.5903 6.90234C17.8286 7.11719 18.2134 7.22461 18.7446 7.22461C19.0845 7.22461 19.352 7.15234 19.5473 7.00781C19.7466 6.85938 19.8462 6.65234 19.8462 6.38672Z" fill="white"/>
<path d="M24.9089 8.6543H22.8581V0.123047H24.9089V8.6543Z" fill="white"/>
<path d="M30.499 6.38672C30.499 6.08594 30.3916 5.85156 30.1767 5.68359C29.9658 5.51562 29.5927 5.3418 29.0576 5.16211C28.5224 4.98242 28.0849 4.80859 27.7451 4.64062C26.6396 4.09766 26.0869 3.35156 26.0869 2.40234C26.0869 1.92969 26.2236 1.51367 26.497 1.1543C26.7744 0.791016 27.165 0.509766 27.6689 0.310547C28.1728 0.107422 28.7392 0.00585938 29.3681 0.00585938C29.9814 0.00585938 30.5302 0.115234 31.0146 0.333984C31.5029 0.552734 31.8818 0.865234 32.1513 1.27148C32.4209 1.67383 32.5556 2.13477 32.5556 2.6543H30.5048C30.5048 2.30664 30.3974 2.03711 30.1826 1.8457C29.9716 1.6543 29.6845 1.55859 29.3213 1.55859C28.9541 1.55859 28.663 1.64062 28.4482 1.80469C28.2373 1.96484 28.1318 2.16992 28.1318 2.41992C28.1318 2.63867 28.249 2.83789 28.4834 3.01758C28.7177 3.19336 29.1298 3.37695 29.7197 3.56836C30.3095 3.75586 30.7939 3.95898 31.1728 4.17773C32.0947 4.70898 32.5556 5.44141 32.5556 6.375C32.5556 7.12109 32.2744 7.70703 31.7119 8.13281C31.1494 8.55859 30.3779 8.77148 29.3974 8.77148C28.706 8.77148 28.0791 8.64844 27.5166 8.40234C26.958 8.15234 26.5361 7.8125 26.2509 7.38281C25.9697 6.94922 25.8291 6.45117 25.8291 5.88867H27.8916C27.8916 6.3457 28.0088 6.68359 28.2431 6.90234C28.4814 7.11719 28.8662 7.22461 29.3974 7.22461C29.7373 7.22461 30.0048 7.15234 30.2002 7.00781C30.3994 6.85938 30.499 6.65234 30.499 6.38672Z" fill="white"/>
<path d="M37.8002 3.5625H38.7319C39.4702 3.5625 39.8393 3.20117 39.8393 2.47852C39.8393 2.19727 39.7514 1.96875 39.5756 1.79297C39.3998 1.61328 39.1518 1.52344 38.8315 1.52344C38.5698 1.52344 38.3413 1.59961 38.1459 1.75195C37.9545 1.9043 37.8588 2.09375 37.8588 2.32031H35.8842C35.8842 1.87109 36.0092 1.4707 36.2592 1.11914C36.5092 0.767578 36.8549 0.494141 37.2963 0.298828C37.7416 0.0996094 38.2299 0 38.7612 0C39.7104 0 40.4565 0.216797 40.9995 0.650391C41.5424 1.08398 41.8139 1.67969 41.8139 2.4375C41.8139 2.80469 41.7006 3.15234 41.4741 3.48047C41.2514 3.80469 40.9252 4.06836 40.4955 4.27148C40.9487 4.43555 41.3041 4.68555 41.562 5.02148C41.8198 5.35352 41.9487 5.76562 41.9487 6.25781C41.9487 7.01953 41.6557 7.62891 41.0698 8.08594C40.4838 8.54297 39.7143 8.77148 38.7612 8.77148C38.2026 8.77148 37.683 8.66602 37.2026 8.45508C36.726 8.24023 36.3647 7.94531 36.1186 7.57031C35.8725 7.19141 35.7495 6.76172 35.7495 6.28125H37.7358C37.7358 6.54297 37.8413 6.76953 38.0522 6.96094C38.2631 7.15234 38.5229 7.24805 38.8315 7.24805C39.1791 7.24805 39.4565 7.15234 39.6635 6.96094C39.8705 6.76562 39.9741 6.51758 39.9741 6.2168C39.9741 5.78711 39.8666 5.48242 39.6518 5.30273C39.437 5.12305 39.1401 5.0332 38.7612 5.0332H37.8002V3.5625Z" fill="white"/>
<path d="M44.5095 3.5625H45.4411C46.1794 3.5625 46.5485 3.20117 46.5485 2.47852C46.5485 2.19727 46.4606 1.96875 46.2848 1.79297C46.1091 1.61328 45.861 1.52344 45.5407 1.52344C45.279 1.52344 45.0505 1.59961 44.8552 1.75195C44.6637 1.9043 44.568 2.09375 44.568 2.32031H42.5934C42.5934 1.87109 42.7184 1.4707 42.9684 1.11914C43.2184 0.767578 43.5641 0.494141 44.0055 0.298828C44.4509 0.0996094 44.9391 0 45.4704 0C46.4196 0 47.1657 0.216797 47.7087 0.650391C48.2516 1.08398 48.5231 1.67969 48.5231 2.4375C48.5231 2.80469 48.4098 3.15234 48.1833 3.48047C47.9606 3.80469 47.6345 4.06836 47.2048 4.27148C47.6579 4.43555 48.0134 4.68555 48.2712 5.02148C48.529 5.35352 48.6579 5.76562 48.6579 6.25781C48.6579 7.01953 48.3649 7.62891 47.779 8.08594C47.193 8.54297 46.4235 8.77148 45.4704 8.77148C44.9118 8.77148 44.3923 8.66602 43.9118 8.45508C43.4352 8.24023 43.0739 7.94531 42.8278 7.57031C42.5817 7.19141 42.4587 6.76172 42.4587 6.28125H44.445C44.445 6.54297 44.5505 6.76953 44.7614 6.96094C44.9723 7.15234 45.2321 7.24805 45.5407 7.24805C45.8884 7.24805 46.1657 7.15234 46.3727 6.96094C46.5798 6.76562 46.6833 6.51758 46.6833 6.2168C46.6833 5.78711 46.5759 5.48242 46.361 5.30273C46.1462 5.12305 45.8493 5.0332 45.4704 5.0332H44.5095V3.5625Z" fill="white"/>
</svg>
