<svg width="12" height="8" viewBox="0 0 12 8" fill="none" xmlns="http://www.w3.org/2000/svg">
<path fill-rule="evenodd" clip-rule="evenodd" d="M11.7488 0.234239C11.9096 0.384268 12 0.587723 12 0.799863C12 1.012 11.9096 1.21546 11.7488 1.36549L4.88554 7.76576C4.72466 7.91574 4.50649 8 4.279 8C4.05152 8 3.83334 7.91574 3.67246 7.76576L0.240825 4.56562C0.0845501 4.41474 -0.00192225 4.21265 3.24312e-05 4.00288C0.00198711 3.79311 0.0922125 3.59245 0.251276 3.44412C0.410339 3.29579 0.625513 3.21165 0.850454 3.20983C1.0754 3.208 1.2921 3.28864 1.45391 3.43438L4.279 6.06889L10.5357 0.234239C10.6966 0.084256 10.9148 0 11.1423 0C11.3698 0 11.5879 0.084256 11.7488 0.234239Z" fill="#00B9FF"/>
</svg>
