<svg width="16" height="16" viewBox="0 0 16 16" fill="none" xmlns="http://www.w3.org/2000/svg">
<path d="M7.1999 1.6001C6.98773 1.6001 6.78425 1.68438 6.63422 1.83441C6.48419 1.98444 6.3999 2.18792 6.3999 2.4001C6.3999 2.61227 6.48419 2.81575 6.63422 2.96578C6.78425 3.11581 6.98773 3.2001 7.1999 3.2001H8.7999C9.01208 3.2001 9.21556 3.11581 9.36559 2.96578C9.51562 2.81575 9.5999 2.61227 9.5999 2.4001C9.5999 2.18792 9.51562 1.98444 9.36559 1.83441C9.21556 1.68438 9.01208 1.6001 8.7999 1.6001H7.1999Z" fill="white"/>
<path fill-rule="evenodd" clip-rule="evenodd" d="M3.2002 3.9999C3.2002 3.57556 3.36877 3.16859 3.66882 2.86853C3.96888 2.56847 4.37585 2.3999 4.8002 2.3999C4.8002 3.03642 5.05305 3.64687 5.50314 4.09696C5.95323 4.54705 6.56368 4.7999 7.2002 4.7999H8.8002C9.43672 4.7999 10.0472 4.54705 10.4973 4.09696C10.9473 3.64687 11.2002 3.03642 11.2002 2.3999C11.6245 2.3999 12.0315 2.56847 12.3316 2.86853C12.6316 3.16859 12.8002 3.57556 12.8002 3.9999V12.7999C12.8002 13.2242 12.6316 13.6312 12.3316 13.9313C12.0315 14.2313 11.6245 14.3999 11.2002 14.3999H4.8002C4.37585 14.3999 3.96888 14.2313 3.66882 13.9313C3.36877 13.6312 3.2002 13.2242 3.2002 12.7999V3.9999ZM10.9658 8.5655C11.1115 8.41462 11.1922 8.21254 11.1903 8.00278C11.1885 7.79302 11.1044 7.59237 10.9561 7.44405C10.8077 7.29572 10.6071 7.21159 10.3973 7.20976C10.1876 7.20794 9.98548 7.28858 9.8346 7.4343L7.2002 10.0687L6.1658 9.0343C6.01491 8.88858 5.81283 8.80794 5.60307 8.80976C5.39332 8.81159 5.19267 8.89572 5.04434 9.04405C4.89601 9.19237 4.81188 9.39302 4.81006 9.60278C4.80823 9.81254 4.88887 10.0146 5.0346 10.1655L6.6346 11.7655C6.78462 11.9155 6.98806 11.9997 7.2002 11.9997C7.41233 11.9997 7.61577 11.9155 7.7658 11.7655L10.9658 8.5655Z" fill="white"/>
</svg>
