<svg width="16" height="16" viewBox="0 0 16 16" fill="none" xmlns="http://www.w3.org/2000/svg">
<path d="M0 8.00022C0 8.97879 0.176031 9.91616 0.497594 10.7828L8 11.4785L15.5024 10.7828C15.824 9.91616 16 8.97879 16 8.00022C16 7.02166 15.824 6.08429 15.5024 5.21763L8 4.52197L0.497594 5.21763C0.176031 6.08429 0 7.02166 0 8.00022Z" fill="#D80027"/>
<path d="M15.5029 5.21741C14.3725 2.17103 11.4402 0 8.00045 0C4.56073 0 1.62839 2.17103 0.498047 5.21741H15.5029Z" fill="black"/>
<path d="M0.498047 10.7827C1.62839 13.8291 4.56073 16.0001 8.00045 16.0001C11.4402 16.0001 14.3725 13.8291 15.5029 10.7827H0.498047Z" fill="#EDC000"/>
</svg>
