<svg width="24" height="24" viewBox="0 0 24 24" fill="none" xmlns="http://www.w3.org/2000/svg">
<path d="M5.9998 4.79998C5.9998 4.48172 5.87337 4.17649 5.64832 3.95145C5.42328 3.7264 5.11806 3.59998 4.7998 3.59998C4.48154 3.59998 4.17631 3.7264 3.95127 3.95145C3.72623 4.17649 3.5998 4.48172 3.5998 4.79998V13.5216C3.23498 13.7322 2.93204 14.0352 2.72141 14.4C2.51079 14.7649 2.3999 15.1787 2.3999 15.6C2.3999 16.0212 2.51079 16.4351 2.72141 16.7999C2.93204 17.1648 3.23498 17.4677 3.5998 17.6784V19.2C3.5998 19.5182 3.72623 19.8235 3.95127 20.0485C4.17631 20.2735 4.48154 20.4 4.7998 20.4C5.11806 20.4 5.42328 20.2735 5.64832 20.0485C5.87337 19.8235 5.9998 19.5182 5.9998 19.2V17.6784C6.36461 17.4677 6.66756 17.1648 6.87818 16.7999C7.08881 16.4351 7.19969 16.0212 7.19969 15.6C7.19969 15.1787 7.08881 14.7649 6.87818 14.4C6.66756 14.0352 6.36461 13.7322 5.9998 13.5216V4.79998ZM13.1998 4.79998C13.1998 4.48172 13.0734 4.17649 12.8483 3.95145C12.6233 3.7264 12.3181 3.59998 11.9998 3.59998C11.6815 3.59998 11.3763 3.7264 11.1513 3.95145C10.9262 4.17649 10.7998 4.48172 10.7998 4.79998V6.32158C10.435 6.53223 10.132 6.83519 9.92141 7.20003C9.71079 7.56486 9.5999 7.97871 9.5999 8.39998C9.5999 8.82124 9.71079 9.23509 9.92141 9.59992C10.132 9.96476 10.435 10.2677 10.7998 10.4784V19.2C10.7998 19.5182 10.9262 19.8235 11.1513 20.0485C11.3763 20.2735 11.6815 20.4 11.9998 20.4C12.3181 20.4 12.6233 20.2735 12.8483 20.0485C13.0734 19.8235 13.1998 19.5182 13.1998 19.2V10.4784C13.5646 10.2677 13.8676 9.96476 14.0782 9.59992C14.2888 9.23509 14.3997 8.82124 14.3997 8.39998C14.3997 7.97871 14.2888 7.56486 14.0782 7.20003C13.8676 6.83519 13.5646 6.53223 13.1998 6.32158V4.79998ZM19.1998 3.59998C19.5181 3.59998 19.8233 3.7264 20.0483 3.95145C20.2734 4.17649 20.3998 4.48172 20.3998 4.79998V13.5216C20.7646 13.7322 21.0676 14.0352 21.2782 14.4C21.4888 14.7649 21.5997 15.1787 21.5997 15.6C21.5997 16.0212 21.4888 16.4351 21.2782 16.7999C21.0676 17.1648 20.7646 17.4677 20.3998 17.6784V19.2C20.3998 19.5182 20.2734 19.8235 20.0483 20.0485C19.8233 20.2735 19.5181 20.4 19.1998 20.4C18.8815 20.4 18.5763 20.2735 18.3513 20.0485C18.1262 19.8235 17.9998 19.5182 17.9998 19.2V17.6784C17.635 17.4677 17.332 17.1648 17.1214 16.7999C16.9108 16.4351 16.7999 16.0212 16.7999 15.6C16.7999 15.1787 16.9108 14.7649 17.1214 14.4C17.332 14.0352 17.635 13.7322 17.9998 13.5216V4.79998C17.9998 4.48172 18.1262 4.17649 18.3513 3.95145C18.5763 3.7264 18.8815 3.59998 19.1998 3.59998Z" fill="#00B9FF"/>
<circle cx="20.5" cy="3.5" r="3.5" fill="none"/>
</svg>
