<svg width="18" height="18" viewBox="0 0 18 18" fill="none" xmlns="http://www.w3.org/2000/svg">
<path d="M15.2947 15.235H12.6454V11.086C12.6454 10.0966 12.6277 8.82299 11.2675 8.82299C9.8877 8.82299 9.67659 9.90095 9.67659 11.0139V15.2347H7.02733V6.70269H9.57061V7.86868H9.60621C9.86074 7.43348 10.2285 7.07546 10.6704 6.83276C11.1123 6.59006 11.6118 6.47176 12.1156 6.49046C14.8007 6.49046 15.2958 8.25669 15.2958 10.5545L15.2947 15.235ZM4.03808 5.53642C3.73402 5.53648 3.43676 5.44636 3.18391 5.27747C2.93105 5.10858 2.73396 4.8685 2.61754 4.58758C2.50113 4.30667 2.47063 3.99755 2.5299 3.6993C2.58916 3.40106 2.73554 3.12708 2.95051 2.91203C3.16548 2.69697 3.43939 2.5505 3.73761 2.49112C4.03582 2.43174 4.34495 2.46213 4.62589 2.57845C4.90683 2.69476 5.14698 2.89178 5.31595 3.14458C5.48493 3.39738 5.57515 3.69462 5.5752 3.9987C5.57524 4.2006 5.53551 4.40053 5.45828 4.58707C5.38105 4.77362 5.26784 4.94313 5.12511 5.08592C4.98237 5.22871 4.81291 5.34199 4.6264 5.41929C4.43989 5.49658 4.23998 5.53639 4.03808 5.53642ZM5.36271 15.235H2.7107V6.70269H5.36271V15.235ZM16.6154 0.00121775H1.37944C1.03363 -0.00268489 0.700413 0.130869 0.453015 0.372531C0.205617 0.614193 0.0642791 0.944193 0.0600586 1.29001V16.5897C0.0641346 16.9357 0.205382 17.2659 0.452772 17.5079C0.700161 17.7498 1.03346 17.8836 1.37944 17.8799H16.6154C16.9621 17.8842 17.2963 17.7508 17.5447 17.5089C17.7931 17.267 17.9353 16.9364 17.9401 16.5897V1.28891C17.9351 0.942403 17.7928 0.612029 17.5445 0.370373C17.2961 0.128716 16.9619 -0.00445617 16.6154 0.000113852" fill="white"/>
</svg>
