<svg width="14" height="14" viewBox="0 0 14 14" fill="none" xmlns="http://www.w3.org/2000/svg">
<path fill-rule="evenodd" clip-rule="evenodd" d="M0.732898 2.99921C3.04901 2.97041 5.27595 2.10197 7.0001 0.555206C8.72413 2.10226 10.9511 2.97099 13.2673 3.00001C13.3553 3.52001 13.4001 4.05601 13.4001 4.60081C13.4001 8.78081 10.7281 12.3368 7.0001 13.6544C3.2721 12.336 0.600098 8.78001 0.600098 4.60001C0.600098 4.05441 0.645698 3.52001 0.732898 2.99921ZM9.9657 5.96561C10.1114 5.81472 10.1921 5.61264 10.1902 5.40289C10.1884 5.19313 10.1043 4.99248 9.95595 4.84415C9.80763 4.69583 9.60698 4.61169 9.39722 4.60987C9.18746 4.60804 8.98538 4.68868 8.8345 4.83441L6.2001 7.46881L5.1657 6.43441C5.01482 6.28868 4.81273 6.20805 4.60298 6.20987C4.39322 6.21169 4.19257 6.29583 4.04424 6.44415C3.89592 6.59248 3.81178 6.79313 3.80996 7.00289C3.80814 7.21264 3.88877 7.41472 4.0345 7.56561L5.6345 9.16561C5.78452 9.31558 5.98797 9.39984 6.2001 9.39984C6.41223 9.39984 6.61567 9.31558 6.7657 9.16561L9.9657 5.96561Z" fill="#05144B" fill-opacity="0.56"/>
</svg>
