<svg width="15" height="15" viewBox="0 0 15 15" fill="none" xmlns="http://www.w3.org/2000/svg">
<path d="M9.21872 5.78134C8.71865 5.28142 8.04049 5.00058 7.33339 5.00058C6.62628 5.00058 5.94813 5.28142 5.44805 5.78134L2.78139 8.44801C2.52669 8.694 2.32354 8.98825 2.18378 9.3136C2.04403 9.63894 1.97046 9.98886 1.96739 10.3429C1.96431 10.697 2.03178 11.0482 2.16586 11.3759C2.29994 11.7036 2.49795 12.0013 2.74833 12.2517C2.99871 12.5021 3.29645 12.7001 3.62418 12.8342C3.9519 12.9683 4.30305 13.0358 4.65712 13.0327C5.0112 13.0296 5.36112 12.956 5.68647 12.8163C6.01181 12.6765 6.30606 12.4734 6.55205 12.2187L7.28672 11.4847M6.78139 8.21867C7.28146 8.7186 7.95962 8.99944 8.66672 8.99944C9.37382 8.99944 10.052 8.7186 10.5521 8.21867L13.2187 5.55201C13.7045 5.04907 13.9733 4.37546 13.9672 3.67627C13.9611 2.97708 13.6807 2.30825 13.1862 1.81382C12.6918 1.3194 12.023 1.03895 11.3238 1.03288C10.6246 1.0268 9.95099 1.29559 9.44805 1.78134L8.71472 2.51467" stroke="#00B9FF" stroke-width="2" stroke-linecap="round" stroke-linejoin="round"/>
</svg>
