<svg width="12" height="15" viewBox="0 0 12 15" fill="none" xmlns="http://www.w3.org/2000/svg">
<path fill-rule="evenodd" clip-rule="evenodd" d="M2.04006 2.23999C3.09032 1.18973 4.51477 0.599701 6.00006 0.599701C7.48535 0.599701 8.9098 1.18973 9.96006 2.23999C11.0103 3.29024 11.6003 4.7147 11.6003 6.19999C11.6003 7.68527 11.0103 9.10973 9.96006 10.16L6.00006 14.12L2.04006 10.16C1.51999 9.63997 1.10745 9.02261 0.825987 8.34315C0.544525 7.66368 0.399658 6.93544 0.399658 6.19999C0.399658 5.46454 0.544525 4.73629 0.825987 4.05683C1.10745 3.37737 1.51999 2.76 2.04006 2.23999ZM6.00006 7.79999C6.42441 7.79999 6.83138 7.63141 7.13143 7.33136C7.43149 7.0313 7.60006 6.62433 7.60006 6.19999C7.60006 5.77564 7.43149 5.36867 7.13143 5.06862C6.83138 4.76856 6.42441 4.59999 6.00006 4.59999C5.57572 4.59999 5.16875 4.76856 4.86869 5.06862C4.56863 5.36867 4.40006 5.77564 4.40006 6.19999C4.40006 6.62433 4.56863 7.0313 4.86869 7.33136C5.16875 7.63141 5.57572 7.79999 6.00006 7.79999Z" fill="#00B9FF"/>
</svg>
