<svg width="14" height="12" viewBox="0 0 14 12" fill="none" xmlns="http://www.w3.org/2000/svg">
<path d="M13.7746 1.77105C13.2656 1.99617 12.7259 2.14403 12.1732 2.20971C12.7557 1.86133 13.1917 1.31305 13.3999 0.667045C12.8532 0.992378 12.2539 1.22038 11.6292 1.34371C11.2097 0.894764 10.6535 0.59702 10.0472 0.496768C9.44095 0.396516 8.81854 0.499372 8.27676 0.789347C7.73497 1.07932 7.30417 1.54017 7.05132 2.10024C6.79847 2.66031 6.73775 3.28823 6.87858 3.88638C5.76998 3.83081 4.68547 3.54273 3.69544 3.04082C2.70541 2.53891 1.832 1.83441 1.13191 0.973045C0.884106 1.39868 0.753883 1.88253 0.75458 2.37504C0.75458 3.34171 1.24658 4.19571 1.99458 4.69571C1.55192 4.68178 1.119 4.56223 0.731913 4.34705V4.38171C0.732047 5.02551 0.954826 5.64946 1.36248 6.14775C1.77013 6.64605 2.33757 6.98803 2.96858 7.11571C2.55766 7.22707 2.12678 7.24348 1.70858 7.16371C1.88649 7.71787 2.23325 8.20251 2.70031 8.54979C3.16736 8.89706 3.73133 9.08957 4.31325 9.10038C3.7349 9.5546 3.0727 9.89037 2.3645 10.0885C1.6563 10.2866 0.915998 10.3432 0.185913 10.255C1.46038 11.0747 2.94398 11.5098 4.45925 11.5084C9.58791 11.5084 12.3926 7.25971 12.3926 3.57505C12.3926 3.45505 12.3892 3.33371 12.3839 3.21504C12.9298 2.82049 13.401 2.33172 13.7752 1.77171L13.7746 1.77105Z" fill="#00B9FF"/>
</svg>
