<svg xmlns="http://www.w3.org/2000/svg" xml:space="preserve" width="40px" height="40px" version="1.0" shape-rendering="geometricPrecision" text-rendering="geometricPrecision" image-rendering="optimizeQuality" fill-rule="evenodd" clip-rule="evenodd"
     viewBox="0 0 40 40">
 <g id="Слой_x0020_1">
      <path fill="white" fill-rule="nonzero" d="M40 20c0,-11.05 -8.95,-20 -20,-20 -11.05,0 -20,8.95 -20,20 0,11.05 8.95,20 20,20 11.05,0 20,-8.95 20,-20zm-20 -1.61c-0.85,0 -1.67,-0.34 -2.27,-0.94 -0.6,-0.6 -0.94,-1.42 -0.94,-2.27 0,-0.85 0.34,-1.67 0.94,-2.27 0.6,-0.61 1.42,-0.95 2.27,-0.95 0.86,0 1.67,0.34 2.28,0.95 0.6,0.6 0.93,1.42 0.93,2.27 0,0.85 -0.33,1.67 -0.93,2.27 -0.61,0.6 -1.42,0.94 -2.28,0.94zm-7.5 9.65c0,-0.99 0.19,-1.96 0.57,-2.88 0.38,-0.9 0.93,-1.73 1.63,-2.43 0.69,-0.7 1.52,-1.25 2.43,-1.62 0.91,-0.38 1.89,-0.57 2.87,-0.57 0.99,0 1.96,0.19 2.87,0.57 0.91,0.37 1.74,0.92 2.43,1.62 0.7,0.7 1.25,1.53 1.63,2.43 0.38,0.92 0.57,1.89 0.57,2.88l-15 0z"/>
 </g>
</svg>
