<svg width="510" height="622" viewBox="0 0 510 622" fill="none" xmlns="http://www.w3.org/2000/svg">
<path d="M299.948 456.54L394.558 551.199C278.851 646.073 114.55 643.784 1.63303 551.21L96.2546 456.539C156.512 498.898 237.708 500.337 299.948 456.54Z" stroke="white"/>
<path d="M211.974 0.5C302.293 4.48721 385.812 46.8415 441.842 117.921L441.838 117.926L442.111 118.274C532.02 232.655 530.689 395.026 438.328 507.127L343.893 412.648C392.393 343.768 383.827 255.787 334.735 196.682C302.692 158.102 258.038 136.758 212.023 133.199L212.004 133.197H211.985H96.688V0.5H211.974Z" stroke="white"/>
<path d="M80.3398 310.72C80.3398 245.656 133.064 192.907 198.096 192.907C263.128 192.907 315.852 245.656 315.852 310.72C315.852 375.783 263.128 428.532 198.096 428.532C133.064 428.532 80.3398 375.783 80.3398 310.72Z" stroke="white"/>
</svg>
