<svg width="154" height="28" viewBox="0 0 154 28" fill="none" xmlns="http://www.w3.org/2000/svg">
<path d="M17.7634 24.814C12.5362 29.1133 5.10051 29.0093 0 24.8146L4.29246 20.522C7.00525 22.4376 10.6688 22.5029 13.4713 20.522L17.7632 24.814H17.7634Z" fill="#00B9FF"/>
<path d="M19.8892 5.31005C23.95 10.4738 23.8847 17.8068 19.7026 22.862L15.4186 18.578C17.6089 15.4839 17.2268 11.5258 15.0182 8.86795C13.5791 7.13615 11.5737 6.17801 9.50717 6.01825H4.29199V-0.000244141H9.50717C13.5882 0.179689 17.3617 2.09534 19.8894 5.30985L19.8892 5.31005Z" fill="#9146FF"/>
<path fill-rule="evenodd" clip-rule="evenodd" d="M8.88209 8.66113C5.94078 8.66113 3.55615 11.0458 3.55615 13.9871C3.55615 16.9284 5.94078 19.313 8.88209 19.313C11.8234 19.313 14.208 16.9284 14.208 13.9871C14.208 11.0458 11.8234 8.66113 8.88209 8.66113Z" fill="#00B9FF"/>
<path fill-rule="evenodd" clip-rule="evenodd" d="M142.651 23.3953H131.608C129.113 23.3953 127.519 21.2461 127.501 19.089C127.486 17.3531 128.504 15.8685 130.115 15.2433L139.116 12.8132C139.574 12.6866 139.911 12.2668 139.911 11.7682C139.911 11.1695 139.425 10.684 138.827 10.684H129.654V7.46313H138.827C141.321 7.46313 142.915 9.61163 142.934 11.7684C142.949 13.5047 141.93 14.9899 140.319 15.6151L131.318 18.0454C130.86 18.1723 130.524 18.5918 130.524 19.0904C130.524 19.6893 131.009 20.1744 131.608 20.1744H142.651V23.3955V23.3953Z" fill="white"/>
<path fill-rule="evenodd" clip-rule="evenodd" d="M120.218 23.3953V15.5861C120.218 14.0997 120.838 12.8447 121.834 11.9769C122.932 11.0204 124.213 10.684 125.644 10.684H127.501V7.46313H125.9C123.966 7.46313 121.641 8.43424 120.917 10.3756C120.705 10.3756 120.43 10.3756 120.218 10.3756V7.46313H116.997V23.3955H120.218V23.3953Z" fill="white"/>
<path fill-rule="evenodd" clip-rule="evenodd" d="M111.138 10.2122V7.46314H114.359V23.3955H111.138C111.138 22.4764 111.141 21.5576 111.141 20.6388C110.929 20.6388 110.654 20.6388 110.442 20.6388C108.623 23.8243 105.038 24.3592 102.011 22.845C99.3239 21.5006 97.5557 18.6373 97.5557 15.4226C97.5557 11.9541 99.6572 8.97733 102.655 7.69186C105.394 6.51797 109.392 7.37173 110.439 10.2122C110.651 10.2122 110.926 10.2122 111.138 10.2122ZM105.964 10.194C108.851 10.194 111.192 12.535 111.192 15.4226C111.192 18.3102 108.851 20.651 105.964 20.651C103.076 20.651 100.735 18.3102 100.735 15.4226C100.735 12.5352 103.076 10.194 105.964 10.194Z" fill="white"/>
<path fill-rule="evenodd" clip-rule="evenodd" d="M78.8292 23.3952V15.4226C78.9991 9.33781 88.5878 7.32169 88.4015 15.9095V23.3952H91.6232L91.6638 14.861C91.6827 10.8825 89.7131 7.31346 85.4124 7.18911C83.0455 7.12076 80.7222 8.1073 79.5279 10.2122C79.3161 10.2122 79.0411 10.2122 78.8292 10.2122V7.46313H75.6079V23.3955H78.8292V23.3952Z" fill="white"/>
<path fill-rule="evenodd" clip-rule="evenodd" d="M72.9701 23.3952V7.46289H69.749V23.3952H72.9701Z" fill="white"/>
<path fill-rule="evenodd" clip-rule="evenodd" d="M45.5903 10.2119C45.5903 7.816 45.5903 5.7797 45.5903 3.38354H48.8114V23.3953H45.5903C45.5905 22.4762 45.5934 21.5574 45.5934 20.6386C45.3813 20.6386 45.1065 20.6386 44.8945 20.6386C43.1635 23.7185 39.4759 24.4248 36.4631 22.8447C33.8024 21.4493 32.0078 18.6371 32.0078 15.4224C32.0078 11.9538 34.109 8.97609 37.1075 7.69165C39.7919 6.51714 43.8217 7.3711 44.8914 10.2119C45.1034 10.2119 45.3783 10.2119 45.5903 10.2119ZM40.4157 10.1938C43.3031 10.1938 45.644 12.5348 45.644 15.4224C45.644 18.31 43.3033 20.6508 40.4157 20.6508C37.5283 20.6508 35.1873 18.31 35.1873 15.4224C35.1873 12.535 37.5281 10.1938 40.4157 10.1938Z" fill="white"/>
<path fill-rule="evenodd" clip-rule="evenodd" d="M59.2829 7.18868C63.8347 7.18868 67.5411 10.6288 67.6854 15.1453C67.6977 15.5239 67.6872 15.8969 67.6475 16.2733H64.4414H54.1243C54.5319 18.7544 56.6862 20.6472 59.2829 20.6472C61.2189 20.6472 62.9085 19.5948 63.8123 18.031H67.2763C66.1776 21.3956 63.4703 23.6587 59.2829 23.6587C55.0956 23.6587 50.875 20.0624 50.875 15.4189C50.875 10.7756 54.6392 7.18848 59.2829 7.18848V7.18868ZM64.2477 13.777C63.5589 11.6938 61.5967 10.1907 59.2829 10.1907C56.9689 10.1907 55.0065 11.694 54.3178 13.777H64.2477Z" fill="white"/>
<path fill-rule="evenodd" clip-rule="evenodd" d="M144.998 18.3363V3.38354H148.219V7.46292H153.961V10.6838H148.219V18.3361C148.219 19.3511 149.042 20.1737 150.057 20.1737H153.961V23.395H150.057C147.262 23.3948 144.998 21.1302 144.998 18.3361V18.3363Z" fill="white"/>
</svg>
